<svg width="128" height="128" viewBox="0 0 128 128" fill="none" xmlns="http://www.w3.org/2000/svg">
  <rect x="10" y="14" width="4" height="96" rx="2" fill="#1B1F23" />
  <rect x="22" y="80" width="18" height="28" rx="3" fill="#1E88E5" stroke="#1B1F23" stroke-width="3" />
  <rect x="46" y="56" width="18" height="52" rx="3" fill="#1E88E5" stroke="#1B1F23" stroke-width="3" />
  <rect x="70" y="70" width="18" height="38" rx="3" fill="#1E88E5" stroke="#1B1F23" stroke-width="3" />
  <rect x="94" y="44" width="18" height="64" rx="3" fill="#1E88E5" stroke="#1B1F23" stroke-width="3" />
  <path d="M18 84 L46 56 L66 70 L90 42 L114 18" stroke="#2E7D32" stroke-width="6" stroke-linecap="round" stroke-linejoin="round" />
  <path d="M114 18 L114 36" stroke="#2E7D32" stroke-width="6" stroke-linecap="round" />
  <path d="M114 18 L96 18" stroke="#2E7D32" stroke-width="6" stroke-linecap="round" />
  <circle cx="98" cy="96" r="18" fill="#F9B233" stroke="#1B1F23" stroke-width="3" />
  <path d="M98 86 V106" stroke="#1B1F23" stroke-width="3" stroke-linecap="round" />
  <path d="M103 90 C100 88 94 88 91 92 C88 95 90 99 94 100 L102 102 C106 104 105 110 100 112 C95 114 90 112 87 110" stroke="#1B1F23" stroke-width="3" stroke-linecap="round" stroke-linejoin="round" />
</svg>
